<svg viewBox="0 0 255.81 47.89" xmlns="http://www.w3.org/2000/svg"><path d="m9.24 39.21c0 3.21-.56 3.32-3.29 3.32-2.08 0-2.61.09-6-.06v5.34c6.82-.15 10-.15 15.34-.15s10.06 0 15.43.06v-5.25c-3 .15-3.85.15-5.93.15-2.73 0-3.29-.2-3.29-3.41v-30.21c0-3.21.56-3.32 3.29-3.32 2.08 0 2.56 0 5.93.2v-5.45c-5 .2-10.08.15-15.46.15s-10.19-.04-15.26-.24v5.74a54 54 0 0 1 6-.29c2.72 0 3.26.35 3.29 3.24v30.18z"/><path d="m40 39.21c0 3.21-.56 3.41-3.29 3.41a37.22 37.22 0 0 1 -4.34-.15v5.25c5.8-.06 5-.06 11.54-.06 3.77 0 9.45.23 15.06.23 14.11 0 32.62-7.68 32.62-24.71.03-14.29-12.79-22.84-29.22-22.84-5.53 0-11.1.23-16.63.23-6.57 0-9.39 0-13.33-.15v5.4c2.81 0 2.72-.13 4.32-.13 2.72.01 3.27.13 3.27 3.31zm12.35-33.66c1.76-.07 4.73-.2 7.45-.2 14.91 0 17.79 10.82 17.79 18.57 0 17.63-12.66 19-21.08 19-1.44 0-2.73-.07-4.17-.2v-37.17z" fill-rule="evenodd"/><path d="m98.74 39.21c.1 3.12-.56 3.41-3.29 3.41a54.3 54.3 0 0 1 -5.91-.15v5.32c6.43-.15 14.78-.12 25.68-.12 11.22 0 20-.14 26.41.06v-16.07h-7.21c.08.67.19 4.13.19 4.86 0 1.87 0 5.89-6 5.89h-17.52v-17h4.81c3.37 0 3.85.6 3.85 2.47 0 1.07-.11 3.45-.19 4.41h6.44c-.15-3.1-.26-5.59-.26-8.33 0-3.47.15-6.66.26-10.37h-6.47c.15 1.76.19 3.34.19 4.34 0 1.87-.48 2.47-3.85 2.47h-4.81v-14.58h13.46c3.93 0 8.52.12 8.52 5.4 0 .6 0 3.48-.1 4.15h7.21v-15.03c-5.61.2-13.66.23-24.08.23-11.22 0-20.16 0-26.57-.23v5.66c2.8-.16 3.85-.25 5.93-.21 2.75.05 3.36.43 3.29 3.24v30.18z"/><path d="m143.35 47.72c3.93-.2 7.47-.13 11.39-.13s6.36 0 10.29.21v-5.34c-3.08.15-4.21.15-6.37.15-1 0-2.24-.2-2.24-1.2a8.07 8.07 0 0 1  .8-2.81l3.13-7.21h20l2.56 6.08a17.07 17.07 0 0 1 1.2 3.61c0 1.54-2.32 1.54-3 1.54a51.78 51.78 0 0 1 -5.31-.15l-.14 5.34c5.13-.2 10.24-.06 15.37-.06s8.91-.14 14 .06v-5.4c-1.83.06-1.74.06-3.77.06-2.56 0-3.2-1.05-6.08-7.67l-15.25-34.8c-1.68.13-3.84.21-5.77.21s-4.31-.08-6-.21l-18.28 39.68c-.72 1.54-1.6 2.8-3.77 2.85a12.77 12.77 0 0 1 -2.79-.07v5.26zm35.07-21.13h-16l8.25-18.37h.16l7.61 18.37z" fill-rule="evenodd"/><path d="m206.72 47.81c6.33-.2 13.88-.06 23.42-.06 10.26 0 18.7-.05 25.67.15v-16.24h-7.37c.08.67.15 4.13.15 4.86 0 3.41-.87 5.89-5.84 5.89h-15.07v-33.41c0-2.81.79-3.18 3.31-3.18a43.21 43.21 0 0 1 5.91.25v-5.73c-6.09.23-9.94.23-15.31.23s-9.59 0-15.47-.23v5.74a49.44 49.44 0 0 1 5.88-.24c2.73 0 3.35.45 3.31 3.18v30.19c0 2.88-.69 3.26-3.42 3.26-2.08 0-3 0-5.2-.06v5.4z"/></svg>